<?xml version="1.0" encoding="UTF-8"?>
<svg id="Layer_2" data-name="Layer 2" xmlns="http://www.w3.org/2000/svg" viewBox="0 0 11.53 11.53">
  <defs>
    <style>
      .cls-1 {
        fill: #a0937b;
        fill-rule: evenodd;
      }
    </style>
  </defs>
  <g id="Layer_1-2" data-name="Layer 1">
    <path class="cls-1" d="M5.76,0C2.58,0,0,2.58,0,5.76s2.58,5.76,5.76,5.76,5.76-2.58,5.76-5.76S8.95,0,5.76,0ZM4,9.13h-1.45v-4.7h1.45v4.7ZM3.26,3.81c-.48,0-.86-.39-.86-.87s.39-.87.86-.87.86.39.86.87-.38.87-.86.87ZM9.45,9.13h-1.45v-2.47c0-.68-.26-1.05-.79-1.05-.58,0-.89.39-.89,1.05v2.47h-1.39v-4.7h1.39v.63s.42-.78,1.42-.78,1.71.61,1.71,1.87v2.97Z"/>
  </g>
</svg>