<?xml version="1.0" encoding="UTF-8"?>
<svg id="Layer_2" data-name="Layer 2" xmlns="http://www.w3.org/2000/svg" viewBox="0 0 127.56 78.85">
  <defs>
    <style>
      .cls-1 {
        fill: #a0937b;
      }

      .cls-2 {
        fill: #231f20;
      }

      .cls-3 {
        fill: #616868;
      }

      .cls-4 {
        fill: #616868;
      }
    </style>
  </defs>
  <g id="Layer_1-2" data-name="Layer 1">
    <g>
      <path class="cls-2" d="M124.81,49.06c.9,0,1.6.7,1.6,1.59s-.7,1.61-1.61,1.61-1.63-.7-1.63-1.61.72-1.59,1.63-1.59h0ZM124.79,49.34c-.72,0-1.27.59-1.27,1.31s.55,1.32,1.29,1.32c.71,0,1.25-.58,1.25-1.31s-.54-1.32-1.26-1.32h0ZM124.51,51.53h-.31v-1.67c.17-.03.35-.05.58-.05.28,0,.42.05.52.13.1.07.17.2.17.36,0,.2-.15.33-.32.39v.02c.14.06.22.19.27.41.05.25.09.35.13.41h-.32c-.05-.06-.09-.21-.14-.43-.04-.19-.15-.27-.38-.27h-.2v.7ZM124.51,50.59h.21c.22,0,.43-.07.43-.26,0-.16-.11-.28-.4-.28-.12,0-.19,0-.24.02v.52Z"/>
      <path class="cls-2" d="M93.33,42.26c.9,0,1.6.7,1.6,1.59s-.7,1.61-1.61,1.61-1.63-.7-1.63-1.61.72-1.59,1.63-1.59h0ZM93.31,42.54c-.72,0-1.27.59-1.27,1.31s.55,1.32,1.29,1.32c.71,0,1.25-.58,1.25-1.31s-.54-1.32-1.26-1.32h0ZM93.03,44.73h-.31v-1.67c.17-.03.35-.05.58-.05.28,0,.42.05.52.13.1.07.17.2.17.36,0,.2-.15.33-.32.39v.02c.14.06.22.19.27.41.05.25.09.35.13.41h-.32c-.05-.06-.09-.21-.14-.43-.04-.19-.15-.27-.38-.27h-.2v.7ZM93.03,43.79h.21c.22,0,.43-.07.43-.26,0-.16-.11-.28-.4-.28-.12,0-.19,0-.24.02v.52Z"/>
      <path class="cls-3" d="M106.92,61.64c0-6.84,4.28-10.57,10.32-10.57s10.32,3.82,10.32,10.57-4.28,10.49-10.32,10.49-10.32-3.82-10.32-10.49M111.12,61.64c0,4.53,2.31,6.96,6.12,6.96s6.12-2.43,6.12-6.96-2.31-7.05-6.12-7.05-6.12,2.52-6.12,7.05"/>
      <path class="cls-4" d="M38.26,68.35v3.56c-.42.12-1.5.22-2.34.22-1.64,0-2.36-.55-3.11-1.72l-4.4-6.63-5.24,7.8h-4.28l7.01-9.98-4.78-6.63c-.28-.41-.74-.56-2.48-.06v-3.46c.57-.21,1.34-.3,2.43-.3,1.34,0,2.06.25,2.89,1.47l4.49,6.59,5.37-7.72h4.45s-7.26,10.07-7.26,10.07l4.74,6.8c.25.32,1.32.36,2.52,0"/>
      <path class="cls-4" d="M74.72,68.27v-9.35c0-5.2-3.02-7.85-8.77-7.85s-7.93,2.52-8.6,5.87h4.21c.51-1.65,1.86-2.56,4.35-2.56,3.15,0,4.82,1.47,4.82,4.53v4.5c-.03,3.29-2.87,5.61-6.12,5.61-2.39,0-3.86-.92-3.86-3.15s1.68-3.44,5.2-3.44c1.16,0,2.26.13,3.28.28v-2.74c-1.07-.18-2.25-.31-3.66-.31-6.08,0-8.85,2.6-8.85,6.38s2.56,6.08,6.84,6.08c3.4,0,5.75-1.13,7.3-3.19.29,1.93,1.43,3.19,3.82,3.19,1.47,0,2.09-.09,2.68-.22v-3.56c-1.24.36-2.64.4-2.64-.08"/>
      <path class="cls-4" d="M104.69,68.27v-15.25c0-1.66-1.55-1.9-2.89-1.9-1.09,0-2.7,0-3.51.34l-.05,3.46c1.05-.39,2.35-.2,2.35,0v13.87c0,2.47,2.48,3.22,3.72,3.34.75.07,2.4-.08,2.99-.2v-3.56c-1.2.42-2.6.34-2.6-.08"/>
      <path class="cls-4" d="M5.63,61.35c0,.45.03.86.06,1.26h12.93v-1.8c0-5.41-2.98-9.73-9.1-9.73S0,55.32,0,61.32c0,6.75,3.56,10.81,10.19,10.81,3.86,0,6.88-1.38,8.01-2.35l-1.05-3.4c-.8.75-3.23,2.27-6.5,2.27-4.39,0-6.54-2.43-6.5-7.33.11-4.98,2.34-6.85,5.41-6.85,2.73,0,4.66,1.47,4.91,5.29H5.77c-.07.48-.12,1-.13,1.6"/>
      <path class="cls-4" d="M55.25,66.12s-.07-.04-.1-.04c-1.25.96-3.45,2.52-7.02,2.52s-6.21-2.22-6.21-7.09c0-4.53,2.32-6.92,5.76-6.92,2.49,0,3.87.75,4.39,2.35h4.22c-.67-3.36-2.83-5.87-8.66-5.87-6.42,0-9.9,4.32-9.9,10.45,0,2.51.47,4.55,1.35,6.15,1.66,3.03,4.78,4.46,8.93,4.46s6.59-1.32,7.98-2.52c.02-.04.01-.07.03-.12-.47-.99-.75-2.11-.76-3.37"/>
      <path class="cls-4" d="M89.1,51.07c-3.02,0-5.08,1.26-6.38,3.06-.46-1.84-1.76-2.98-3.77-2.98-1.05,0-2.14.25-2.43.38v3.38c1.38-.47,2.35-.26,2.35.06v23.88h4.11v-19.23c0-2.85,2.31-5.03,5.41-5.03,3.48,0,5.71,2.1,5.71,6.88,0,5.12-2.64,7.13-6.8,7.13-1.07,0-1.98-.18-2.82-.42v3.58c.92.21,1.9.36,3.03.36,6.88,0,10.78-3.82,10.78-10.87,0-6.54-3.65-10.19-9.19-10.19"/>
      <path class="cls-1" d="M96.18,10.89c-4.33-9.39-15.49-13.5-24.88-9.17-4.58,2.11-8.05,5.89-9.77,10.63-1.62,4.47-1.48,9.27.35,13.62-1.74,3.19-2.02,7.13-.38,10.67,3.16,6.85,9.96,10.9,17.05,10.9,2.63,0,5.29-.55,7.83-1.72,4.58-2.11,8.05-5.89,9.77-10.63,1.62-4.47,1.48-9.27-.35-13.62,1.74-3.19,2.02-7.13.38-10.67M64.57,13.46c1.42-3.92,4.29-7.05,8.08-8.8,3.77-1.74,7.98-1.9,11.87-.47,3.89,1.43,6.99,4.3,8.72,8.06,2,4.33.1,9.48-4.23,11.48-4.33,1.99-9.48.1-11.48-4.23t0,0c-.42-.91-.02-1.99.89-2.41.44-.2.93-.23,1.39-.05.46.17.82.5,1.02.94.56,1.23,1.57,2.16,2.84,2.62.57.21,1.16.31,1.75.31.72,0,1.44-.16,2.11-.47,2.53-1.16,3.64-4.17,2.47-6.7-1.33-2.88-3.7-5.07-6.68-6.17-2.97-1.09-6.2-.97-9.08.36-2.79,1.28-4.94,3.57-6.07,6.42-.33.83.08,1.77.91,2.1.83.32,1.77-.08,2.1-.91.82-2.08,2.39-3.74,4.42-4.68,4.33-1.99,9.48-.1,11.47,4.23.42.91.02,1.99-.89,2.41-.44.2-.93.22-1.39.05-.46-.17-.82-.5-1.02-.94-.56-1.23-1.57-2.16-2.84-2.62-1.27-.46-2.64-.41-3.86.15-2.25,1.03-3.36,3.52-2.77,5.83-2.29-.4-4.73-.14-7,.91-1.16.53-2.19,1.24-3.08,2.06-.88-3.11-.78-6.4.34-9.49M93.1,34.09c-1.42,3.92-4.3,7.05-8.08,8.8-3.77,1.74-7.98,1.9-11.87.47-3.89-1.43-6.99-4.3-8.72-8.06-2-4.33-.1-9.48,4.23-11.48,4.33-1.99,9.48-.1,11.48,4.23h0c.42.91.02,1.99-.89,2.41-.44.2-.93.22-1.39.05-.46-.17-.82-.5-1.02-.94-.56-1.23-1.57-2.16-2.84-2.62-1.27-.47-2.64-.41-3.86.15-2.53,1.16-3.64,4.17-2.47,6.7,1.33,2.88,3.7,5.07,6.68,6.17,1.34.49,2.73.74,4.11.74,1.7,0,3.39-.37,4.97-1.1,2.91-1.34,5.11-3.74,6.19-6.75.3-.84-.13-1.77-.97-2.07-.84-.3-1.77.13-2.07.97-.79,2.19-2.39,3.94-4.51,4.91-4.33,2-9.48.1-11.48-4.23-.42-.91-.02-1.99.89-2.41.44-.2.93-.22,1.39-.05.46.17.82.5,1.02.94.56,1.23,1.57,2.16,2.84,2.62,1.27.47,2.64.41,3.86-.15,2.25-1.04,3.36-3.53,2.76-5.85.67.12,1.35.2,2.04.2,1.66,0,3.35-.35,4.96-1.09,1.16-.53,2.19-1.24,3.08-2.06.88,3.11.79,6.4-.34,9.49"/>
    </g>
  </g>
</svg>