<?xml version="1.0" encoding="UTF-8"?>
<svg id="Layer_2" data-name="Layer 2" xmlns="http://www.w3.org/2000/svg" viewBox="0 0 11.23 11.24">
  <defs>
    <style>
      .cls-1 {
        fill: #a0937b;
      }
    </style>
  </defs>
  <g id="Layer_1-2" data-name="Layer 1">
    <path class="cls-1" d="M5.61,0C2.51,0,0,2.52,0,5.62s2.51,5.62,5.61,5.62,5.62-2.52,5.62-5.62S8.71,0,5.61,0M8.32,3.25c-.27,0-.53,0-.76.15-.05.04-.32-.01-.18-.11.03-.01.33-.09.31-.16-.07-.18.21-.16.19-.3,0,0,.31-.13.36-.13.05,0,.23.27.33.29.19.07-.04.2-.15.18,0,0,.18.09.18.11,0-.09.05-.12.1-.18.02-.04-.05-.08,0-.11.03-.01.1.02.08.06.05-.1-.39-.23-.32-.46-.03.08.2.22.25.25.12.08.08.09.13.18.02.05.17.25.2.25.18.02.02-.19.02-.25,0,.02.17-.08.21.06,0,.03.02.1.05.13,0,0,.12.11.12.08,0,.06.2,0,.34,0,.03.06.06.11.09.17-.04.1-.1.27-.17.21-.09-.07-.25.04-.36,0-.07-.04-.5-.25-.47-.01.02.22-.28-.07-.38-.1-.08-.03-.25-.03-.19-.15.02-.03-.03-.17,0-.17M8.56,1.87s0,0,0,0c.05.03.08.06.12.09-.15.02-.32.02-.34.05.02-.05.18-.13.2-.09,0-.03-.03-.04,0-.06M10.35,4.99c-.05-.05-.08-.1-.11-.13-.06-.06-.12-.12-.12-.21,0,0-.09-.21-.09-.22-.04-.06-.21-.48-.25-.49.13.03.32.23.34.39.01.13.11.22.18.3.02.12.02.24.05.36M9.41,2.7c.05.07.12.14.17.22-.07.03-.15.03-.25-.07.01-.01.05-.1.08-.15M9.82,7.87c-.02.05-.05.11-.09.17.02-.09.02-.11.09-.17M9.9,7.58c.03-.12.01-.12.12-.21.03-.02.05-.04.07-.05-.05.13-.11.26-.17.38,0-.04-.02-.08-.02-.11M10.27,6.24s.06-.09.09-.12c-.02.22-.06.45-.11.66-.03-.19-.1-.32.01-.53M.81,5.62c0-.34.04-.67.11-.99.12.09.33.25.46.21.12-.03.16.02.24.12.05.05.18.04.24.08.12.08.14.24.28.34.05.05.09.02.15.07.12.12.04-.11.12-.09.45.11-.25.72-.04.88-.19.12.07.43.15.56.08.11.12.3.22.37.17.12.31.17.35.38.05.26.09.62.08.89,0,.14-.06.78.12.79,0-.02-.02-.05-.03-.08h.05c.01.06.02.13.02.19-.16-.05.02.23,0,.25-.05.09.07.26.24.38-1.63-.76-2.77-2.42-2.77-4.34M5.61,10.42c-.58,0-1.12-.12-1.64-.29.06-.01.12-.02.13-.08-.23-.05-.42-.28-.23-.48-.16-.06-.11-.29,0-.39-.08.01-.12-.03-.12-.12.09.04.09,0,.16-.05.04-.03-.02-.06.12-.1.22-.05.12-.27,0-.33.05-.02.18.07.25.01.09-.09.09-.21.14-.31.04-.07.16-.11.14-.25-.02-.15.08-.19.21-.26.28-.17.32-.33.33-.67,0-.23.36-.43.21-.68-.12-.01-.49-.38-.62-.2.09-.11-.17-.18-.25-.12-.03-.11-.11-.16-.14-.24-.09-.18-.08-.28-.32-.28-.21-.01-.31-.27-.46-.36.02,0,.05-.01.08-.02-.15.04-.47.09-.55-.09-.05.07-.12.12-.1.21-.06-.07-.03-.14.02-.2,0,0-.01-.02-.01-.03-.08.04-.29.08-.29.19,0,.19-.23,0-.34.05-.18.1-.17-.25-.14-.34.05-.21-.32-.21-.32-.16.05-.14.1-.29.16-.41-.23-.06-.15.07-.27.17-.03.02-.31.07-.31.03.01-.05-.1-.18-.1-.25-.01-.1.08-.21.09-.31,0-.12.31-.36.43-.24.06.07.14-.07.2-.06.06,0,.24,0,.27.01.13.11,0,.27.16.36.11-.21-.06-.36.12-.55.08-.06.2-.1.27-.17.03-.03.14-.23.12-.22.03,0,.15-.14.18-.18.07-.08.21-.04.28-.11.02-.01-.02-.12.07-.15.11-.05.22-.09.33-.12-.14.07-.1.16.02.09.1-.06.21-.09.3-.12,0-.03,0-.05-.01-.08-.04.03-.15.13-.22.08-.09-.06.01-.16.05-.23.01-.03-.32.08-.35.09.11-.11.25-.19.39-.19.18,0,.32-.05.47-.08-.09.08-.18.16-.25.26.09,0,.18-.01.23.04.02,0,.03-.02.05-.03,0,.02.02.05.03.07.08-.05.09-.13.08-.21-.03,0-.16-.02-.13-.07.03-.07.16-.24,0-.32-.09-.05-.19-.29-.13-.39-.1.19-.44.14-.24-.02-.14-.03-.15-.09-.3-.1-.16-.01-.14.19-.28.27.18-.05-.17.26-.16.25-.07.07-.08.01-.11.16,0,.05-.06.09-.12.11-.01-.03-.02-.09-.05-.12.02,0,.05,0,.06.01,0-.01,0-.03.01-.04-.02,0-.03,0-.05,0,.02-.04.02-.1.07-.14-.2.04-.27-.18-.45-.14v-.02c.2-.15.41-.28.63-.4.1-.05.18-.05.28-.02,0-.05-.03-.07-.05-.09.13-.07.28-.12.43-.17.05,0,.08-.01.11-.03.01,0,.03-.01.05-.02.09,0-.05.11-.08.13-.05.02-.04.04-.11.07-.08.03-.1-.05-.18.04.07.05.15.01.24.05,0-.01.26.2.26.14,0-.04-.07-.11-.06-.12,0-.02.14.07.15.08.1-.1-.04-.22.01-.25.07-.04.11.15.17.06.02-.03.11-.06.15-.07-.07-.09-.17-.08-.22-.13,0,0,.05-.05.03-.1.24-.05.48-.07.73-.08.02.01.02.01.05.03-.08-.01-.14,0-.14.08.03-.02.07-.02.12-.02-.14.11-.26.26-.16.48.04.09.09.18.21.19.15,0,.15-.09.25-.18.18-.17.25-.16.46-.25.18-.08.36-.22.56-.24.49.11.95.31,1.38.57-.02.07-.01.18.03.2.04.03.23,0,.25-.04h.02c.03.09.11.32-.04.22.02.01,0-.12,0-.14-.26.02.01.27-.21.29-.16.03-.12.16-.28.2.02-.01-.18.12-.23.11,0,.03.01.06.01.06-.06-.07-.29-.05-.06.09.17.1.06.32-.14.28-.12-.02-.22-.04-.28.05-.03.03.02.41-.02.43.1-.05.21.04.18.14-.06.11-.19.2-.25.32-.05.07-.05.13-.14.21-.06.05-.15.07-.18.15-.04.11-.19.25-.19.38,0,.08.05.15.05.25,0,.05-.04.17-.07.19-.06.04.04.06.02.12-.04.17.2.16.2.29,0,.19.25.28.37.38-.02-.02.42-.04.42-.04.2-.09.35-.19.49.04.03.05.17-.01.23.04.06.07.01.13.02.22,0,.04-.06.09-.06.14.02.1.15.18.18.28.05.13.13.3.13.43-.01.2-.16.35-.11.56.04.19.18.33.18.54.01.18.15.32.2.48.01.03.02.14.03.18,0,.09.13,0,.17.01.2.07.43-.1.56-.25.03-.04.06-.08.1-.12-.86,1.33-2.34,2.21-4.04,2.21"/>
  </g>
</svg>